<?xml version="1.0" standalone="no"?><!DOCTYPE svg PUBLIC "-//W3C//DTD SVG 1.1//EN" "http://www.w3.org/Graphics/SVG/1.1/DTD/svg11.dtd"><svg t="1616300353525" class="icon" viewBox="0 0 1024 1024" version="1.1" xmlns="http://www.w3.org/2000/svg" p-id="2144" xmlns:xlink="http://www.w3.org/1999/xlink" width="32" height="32"><defs><style type="text/css"></style></defs><path d="M915.110634 526.94854c-11.698858-11.698858-30.697002-11.698858-42.39586 0L490.852065 908.711259c-11.698858 11.698858-11.698858 30.697002 0 42.395859s30.697002 11.698858 42.39586 0l381.762718-381.762718c11.798848-11.698858 11.798848-30.697002 0.099991-42.39586z" p-id="2145" fill="#2496ed"></path><path d="M534.247827 908.811249l-381.962699-381.962699c-11.698858-11.698858-30.697002-11.698858-42.395859 0s-11.698858 30.697002 0 42.39586l381.962699 381.962699c11.698858 11.698858 30.697002 11.698858 42.395859 0s11.698858-30.697002 0-42.39586z" p-id="2146" fill="#2496ed"></path><path d="M915.110634 72.992872c-11.698858-11.698858-30.697002-11.698858-42.39586 0L490.852065 454.75559c-11.698858 11.698858-11.698858 30.697002 0 42.39586s30.697002 11.698858 42.39586 0l381.762718-381.762718c11.798848-11.698858 11.798848-30.697002 0.099991-42.39586z" p-id="2147" fill="#2496ed"></path><path d="M534.247827 454.855581l-381.962699-381.962699c-11.698858-11.698858-30.697002-11.698858-42.395859 0s-11.698858 30.697002 0 42.395859l381.962699 381.962699c11.698858 11.698858 30.697002 11.698858 42.395859 0s11.698858-30.697002 0-42.395859z" p-id="2148" fill="#2496ed"></path></svg>